<?xml version="1.0" standalone="no"?>
<!DOCTYPE svg PUBLIC "-//W3C//DTD SVG 20010904//EN"
 "http://www.w3.org/TR/2001/REC-SVG-20010904/DTD/svg10.dtd">
<svg version="1.0" xmlns="http://www.w3.org/2000/svg"
 width="500.000000pt" height="500.000000pt" viewBox="0 0 500.000000 500.000000"
 preserveAspectRatio="xMidYMid meet">

<g transform="translate(0.000000,500.000000) scale(0.100000,-0.100000)"
fill="#000000" stroke="none">
<path d="M2301 4599 c-74 -14 -106 -60 -56 -79 32 -12 32 -13 50 -140 16 -120
8 -155 -35 -155 -21 0 -26 6 -31 39 -7 44 -21 56 -65 56 -56 0 -85 -63 -54
-120 29 -54 171 -71 255 -30 75 36 84 69 71 250 -8 99 -7 106 13 124 57 52
-19 80 -148 55z"/>
<path d="M2582 4597 c-10 -12 -9 -20 5 -44 16 -29 16 -37 -1 -150 -18 -115
-18 -120 -1 -157 48 -100 250 -148 348 -82 44 29 63 74 83 195 10 57 22 108
28 113 6 5 20 15 31 22 27 19 8 40 -50 55 -62 15 -100 14 -116 -5 -12 -15 -11
-19 9 -32 27 -18 29 -56 7 -169 -11 -60 -20 -83 -40 -100 -36 -32 -85 -30
-126 4 -31 27 -32 28 -26 97 8 110 25 166 54 177 39 15 27 51 -22 67 -66 22
-168 27 -183 9z"/>
<path d="M1695 4461 c-71 -32 -75 -40 -75 -152 0 -81 -3 -101 -15 -106 -10 -3
-49 18 -101 53 l-85 58 -54 -28 c-93 -48 -109 -87 -43 -103 30 -8 39 -20 91
-123 51 -102 57 -120 52 -157 -6 -42 -5 -43 22 -43 30 0 90 31 110 58 15 19 0
42 -28 42 -22 0 -85 115 -69 125 6 4 47 -21 91 -54 45 -34 85 -61 90 -61 11 0
11 1 13 115 0 50 6 92 11 94 19 8 55 -71 53 -114 -2 -37 0 -40 24 -43 26 -3
117 37 151 66 26 23 20 45 -15 62 -48 23 -143 196 -144 263 0 31 -6 52 -15 58
-18 11 -17 12 -64 -10z"/>
<path d="M3249 4431 c-45 -14 -68 -31 -84 -61 -32 -62 -13 -131 59 -208 25
-27 46 -56 46 -65 0 -41 -84 -22 -114 26 -7 12 -17 38 -20 58 -13 74 -58 68
-72 -8 -10 -52 5 -83 61 -125 118 -89 253 -91 305 -5 38 62 23 122 -50 192
-54 52 -65 72 -49 91 27 33 68 6 108 -73 36 -73 85 -48 79 40 -3 36 -7 44 -37
59 -18 9 -43 26 -56 38 -22 21 -103 51 -134 49 -9 0 -28 -4 -42 -8z"/>
<path d="M3650 4223 c-97 -37 -90 -131 7 -104 42 12 58 3 49 -25 -3 -11 -41
-57 -84 -104 -73 -78 -81 -84 -114 -82 -45 3 -53 -14 -26 -56 23 -37 129 -119
165 -128 28 -7 47 11 37 36 -4 8 -8 22 -11 30 -2 8 32 58 77 113 93 112 117
122 112 45 -3 -41 0 -49 22 -63 40 -27 62 -8 90 78 9 29 -3 64 -27 74 -24 11
-194 150 -216 176 -13 17 -51 21 -81 10z"/>
<path d="M1122 4104 c-16 -11 -22 -25 -22 -54 0 -44 26 -70 72 -70 32 0 48
-24 48 -69 0 -21 5 -31 15 -31 37 0 47 98 16 166 -31 68 -82 91 -129 58z"/>
<path d="M946 3928 c-53 -55 -92 -121 -81 -138 3 -6 22 -10 42 -10 27 0 49
-10 87 -39 84 -66 144 -133 148 -166 2 -22 9 -31 25 -33 40 -6 159 138 146
176 -3 7 -21 12 -43 12 -33 0 -49 10 -121 73 -104 91 -107 94 -111 137 -5 54
-31 51 -92 -12z"/>
<path d="M2469 3942 c12 -8 11 -11 -3 -15 -15 -4 -15 -5 1 -3 19 1 21 19 1 24
-10 3 -10 1 1 -6z"/>
<path d="M2508 3943 c7 -3 16 -2 19 1 4 3 -2 6 -13 5 -11 0 -14 -3 -6 -6z"/>
<path d="M2418 3933 c7 -3 16 -2 19 1 4 3 -2 6 -13 5 -11 0 -14 -3 -6 -6z"/>
<path d="M2556 3931 c-4 -6 4 -15 19 -21 33 -13 38 -13 30 0 -3 6 4 10 17 10
17 0 19 -3 9 -9 -9 -6 -5 -8 13 -8 25 0 25 0 8 12 -26 19 -88 29 -96 16z m37
-8 c-7 -2 -19 -2 -25 0 -7 3 -2 5 12 5 14 0 19 -2 13 -5z"/>
<path d="M2488 3903 c6 -2 18 -2 25 0 6 3 1 5 -13 5 -14 0 -19 -2 -12 -5z"/>
<path d="M2300 3890 c-12 -7 -10 -9 7 -7 12 0 19 5 17 9 -6 10 -6 10 -24 -2z"/>
<path d="M2548 3893 c7 -3 16 -2 19 1 4 3 -2 6 -13 5 -11 0 -14 -3 -6 -6z"/>
<path d="M2488 3883 c7 -3 16 -2 19 1 4 3 -2 6 -13 5 -11 0 -14 -3 -6 -6z"/>
<path d="M2221 3859 c-13 -11 -22 -21 -19 -24 2 -2 17 7 32 20 16 14 25 25 20
25 -5 -1 -20 -10 -33 -21z"/>
<path d="M2165 3860 c-13 -6 -15 -9 -5 -9 8 0 22 4 30 9 18 12 2 12 -25 0z"/>
<path d="M2080 3841 c-23 -7 -22 -8 14 -14 22 -3 42 -4 45 -2 2 3 -4 5 -15 6
-18 0 -18 1 1 9 l20 9 -20 -1 c-11 0 -31 -3 -45 -7z"/>
<path d="M2875 3840 c11 -5 29 -8 40 -8 16 0 15 2 -5 8 -34 11 -60 11 -35 0z"/>
<path d="M2778 3833 c7 -3 16 -2 19 1 4 3 -2 6 -13 5 -11 0 -14 -3 -6 -6z"/>
<path d="M2818 3833 c7 -3 16 -2 19 1 4 3 -2 6 -13 5 -11 0 -14 -3 -6 -6z"/>
<path d="M2028 3823 c7 -3 16 -2 19 1 4 3 -2 6 -13 5 -11 0 -14 -3 -6 -6z"/>
<path d="M2068 3813 c7 -3 16 -2 19 1 4 3 -2 6 -13 5 -11 0 -14 -3 -6 -6z"/>
<path d="M2188 3813 c7 -3 16 -2 19 1 4 3 -2 6 -13 5 -11 0 -14 -3 -6 -6z"/>
<path d="M2818 3813 c7 -3 16 -2 19 1 4 3 -2 6 -13 5 -11 0 -14 -3 -6 -6z"/>
<path d="M2950 3816 c0 -2 9 -6 20 -9 11 -3 18 -1 14 4 -5 9 -34 13 -34 5z"/>
<path d="M2028 3803 c7 -3 16 -2 19 1 4 3 -2 6 -13 5 -11 0 -14 -3 -6 -6z"/>
<path d="M2020 3779 c0 -5 5 -7 10 -4 6 3 10 8 10 11 0 2 -4 4 -10 4 -5 0 -10
-5 -10 -11z"/>
<path d="M2560 3780 c0 -5 7 -7 15 -4 8 4 15 8 15 10 0 2 -7 4 -15 4 -8 0 -15
-4 -15 -10z"/>
<path d="M1825 3771 c-3 -5 -2 -12 3 -15 5 -3 9 1 9 9 0 17 -3 19 -12 6z"/>
<path d="M2138 3773 c6 -2 18 -2 25 0 6 3 1 5 -13 5 -14 0 -19 -2 -12 -5z"/>
<path d="M2828 3773 c7 -3 16 -2 19 1 4 3 -2 6 -13 5 -11 0 -14 -3 -6 -6z"/>
<path d="M2050 3763 c0 -21 19 -24 47 -9 16 8 24 15 20 16 -5 0 -18 -5 -29
-11 -16 -9 -23 -8 -29 2 -6 10 -9 10 -9 2z"/>
<path d="M3163 3760 c-35 -14 -27 -20 10 -8 17 6 34 13 36 14 8 7 -24 3 -46
-6z"/>
<path d="M1774 3746 c24 -19 32 -20 42 -4 4 7 3 8 -4 4 -6 -4 -22 -2 -34 4
-22 11 -22 10 -4 -4z"/>
<path d="M3237 3734 c6 -15 23 -19 23 -5 0 5 -7 11 -14 14 -10 4 -13 1 -9 -9z"/>
<path d="M3128 3723 c7 -3 16 -2 19 1 4 3 -2 6 -13 5 -11 0 -14 -3 -6 -6z"/>
<path d="M4177 3713 c-4 -3 -7 -17 -7 -30 0 -27 -18 -39 -157 -111 -82 -42
-95 -46 -114 -34 -24 15 -49 1 -49 -27 0 -26 47 -119 74 -146 34 -34 54 -31
71 8 12 29 66 67 95 67 9 0 60 -80 60 -93 0 -16 -84 -48 -117 -45 -56 5 -63
-18 -28 -91 32 -67 76 -116 98 -108 8 3 17 18 20 34 5 23 23 38 114 88 94 52
114 60 155 58 48 -2 48 -2 48 30 0 43 -67 156 -96 163 -29 7 -44 -2 -44 -26 0
-20 -49 -60 -74 -60 -18 0 -60 75 -53 94 3 7 20 20 38 28 25 13 38 14 56 5 19
-8 27 -7 40 6 15 15 15 19 -1 61 -18 48 -90 136 -110 136 -7 0 -16 -3 -19 -7z"/>
<path d="M1695 3700 c-3 -5 -1 -10 4 -10 6 0 11 5 11 10 0 6 -2 10 -4 10 -3 0
-8 -4 -11 -10z"/>
<path d="M2990 3696 c4 -4 16 -4 26 2 16 9 14 10 -8 9 -15 -1 -23 -6 -18 -11z"/>
<path d="M2342 3689 c-105 -20 -214 -114 -252 -217 -29 -77 -25 -195 10 -267
31 -64 101 -134 165 -165 42 -21 65 -25 145 -25 82 0 103 4 150 26 64 30 132
96 161 157 97 198 -11 431 -226 487 -65 16 -88 17 -153 4z m166 -91 c28 -28 2
-88 -38 -88 -40 0 -66 60 -38 88 7 7 24 12 38 12 14 0 31 -5 38 -12z m-240
-94 c26 -18 28 -50 5 -76 -20 -22 -41 -23 -65 -1 -25 22 -23 59 4 77 12 9 25
16 28 16 3 0 16 -7 28 -16z m392 -104 c11 -11 20 -26 20 -33 0 -18 -22 -45
-40 -48 -20 -4 -60 10 -60 21 0 5 -3 15 -6 23 -6 18 29 57 51 57 8 0 24 -9 35
-20z m-254 -45 c15 -23 15 -27 0 -50 -10 -15 -26 -25 -41 -25 -15 0 -31 10
-41 25 -15 23 -15 27 0 50 10 15 26 25 41 25 15 0 31 -10 41 -25z m-160 -106
c17 -19 17 -23 3 -47 -21 -38 -62 -41 -85 -8 -15 24 -15 28 0 51 20 31 56 33
82 4z m304 -49 c34 -34 17 -80 -30 -80 -51 0 -72 55 -32 88 22 17 39 15 62 -8z"/>
<path d="M3048 3688 c6 -6 18 -8 28 -6 14 3 12 5 -9 10 -19 3 -25 2 -19 -4z"/>
<path d="M1960 3679 c0 -5 5 -7 10 -4 6 3 10 8 10 11 0 2 -4 4 -10 4 -5 0 -10
-5 -10 -11z"/>
<path d="M3278 3670 c-10 -11 -13 -22 -8 -25 6 -4 10 0 10 7 0 10 2 10 9 -1
10 -15 31 -7 30 12 0 9 -2 8 -6 -1 -2 -6 -9 -10 -13 -7 -5 3 -7 12 -3 20 7 19
2 18 -19 -5z"/>
<path d="M1670 3655 c8 -10 7 -16 -7 -24 -10 -6 -13 -11 -7 -11 15 0 36 25 27
33 -3 4 -1 7 5 7 7 0 12 -5 12 -11 0 -5 5 -7 11 -4 14 9 5 17 -26 21 -21 2
-24 0 -15 -11z"/>
<path d="M3040 3666 c0 -2 7 -7 16 -10 8 -3 12 -2 9 4 -6 10 -25 14 -25 6z"/>
<path d="M3095 3650 c20 -23 29 -21 19 4 -3 9 -13 16 -22 16 -13 0 -12 -3 3
-20z"/>
<path d="M1630 3635 c-7 -9 -11 -17 -9 -18 2 -1 13 -9 24 -17 19 -14 19 -14 3
6 -14 16 -15 23 -6 32 7 7 9 12 6 12 -3 0 -11 -7 -18 -15z"/>
<path d="M2820 3609 c-19 -70 6 -140 66 -185 51 -40 136 -45 193 -13 23 12 48
33 56 45 14 21 12 24 -31 49 -39 23 -50 25 -71 16 -39 -18 -71 -13 -89 14 -8
13 -13 32 -10 43 5 15 -4 24 -43 45 -27 15 -51 27 -54 27 -4 0 -11 -18 -17
-41z"/>
<path d="M1790 3630 c-8 -5 -10 -10 -5 -10 6 0 17 5 25 10 8 5 11 10 5 10 -5
0 -17 -5 -25 -10z"/>
<path d="M1830 3619 c0 -5 5 -7 10 -4 6 3 10 8 10 11 0 2 -4 4 -10 4 -5 0 -10
-5 -10 -11z"/>
<path d="M1860 3609 c-17 -13 -18 -17 -5 -10 33 17 51 31 40 31 -5 0 -21 -10
-35 -21z"/>
<path d="M3177 3619 c7 -7 15 -10 18 -7 3 3 -2 9 -12 12 -14 6 -15 5 -6 -5z"/>
<path d="M3360 3620 c0 -5 5 -10 11 -10 5 0 7 5 4 10 -3 6 -8 10 -11 10 -2 0
-4 -4 -4 -10z"/>
<path d="M3116 3608 c3 -4 11 -5 19 -1 21 7 19 12 -4 10 -11 0 -18 -5 -15 -9z"/>
<path d="M1606 3584 c-3 -9 -11 -12 -18 -8 -10 6 -10 4 0 -8 8 -10 20 -14 30
-11 11 5 12 8 4 11 -10 3 -10 7 -1 18 7 8 7 14 1 14 -5 0 -13 -7 -16 -16z"/>
<path d="M3364 3580 c0 -10 6 -16 13 -13 7 3 13 9 13 13 0 4 -6 10 -13 13 -7
3 -13 -3 -13 -13z"/>
<path d="M3180 3583 c8 -3 17 -10 20 -14 3 -5 21 -15 41 -23 33 -14 35 -13 35
5 0 21 -12 26 -18 8 -5 -14 -48 6 -48 21 0 6 -10 10 -22 9 -16 0 -18 -2 -8 -6z"/>
<path d="M3405 3569 c-4 -6 -5 -12 -2 -15 2 -3 7 2 10 11 7 17 1 20 -8 4z"/>
<path d="M1897 3529 c-32 -20 -47 -35 -43 -45 9 -24 -12 -63 -39 -70 -14 -3
-38 -1 -54 6 -26 10 -35 9 -76 -15 l-46 -28 32 -33 c79 -81 209 -67 272 28 25
38 28 50 25 105 -2 35 -8 67 -14 73 -6 6 -27 -2 -57 -21z"/>
<path d="M3330 3550 c13 -8 12 -10 -4 -10 -11 0 -17 -2 -14 -5 3 -4 18 -3 34
1 25 6 26 8 9 15 -28 11 -43 10 -25 -1z"/>
<path d="M1540 3520 c0 -11 4 -20 9 -20 6 0 9 9 8 20 -1 11 -5 20 -9 20 -4 0
-8 -9 -8 -20z"/>
<path d="M3430 3536 c0 -2 7 -7 16 -10 8 -3 12 -2 9 4 -6 10 -25 14 -25 6z"/>
<path d="M1675 3520 c-3 -6 1 -7 9 -4 18 7 21 14 7 14 -6 0 -13 -4 -16 -10z"/>
<path d="M3317 3509 c7 -7 15 -10 18 -7 3 3 -2 9 -12 12 -14 6 -15 5 -6 -5z"/>
<path d="M1584 3497 c5 -15 2 -17 -17 -11 -26 8 -21 1 13 -16 14 -7 22 -9 18
-5 -4 5 -3 14 4 22 6 7 8 16 4 20 -3 3 -6 0 -6 -8 0 -12 -2 -11 -11 1 -9 13
-10 12 -5 -3z"/>
<path d="M1640 3499 c0 -5 5 -7 10 -4 6 3 10 8 10 11 0 2 -4 4 -10 4 -5 0 -10
-5 -10 -11z"/>
<path d="M3400 3490 c-28 -15 -31 -18 -12 -17 13 1 30 9 39 19 19 21 18 21
-27 -2z"/>
<path d="M3480 3491 c0 -6 4 -13 10 -16 6 -3 7 1 4 9 -7 18 -14 21 -14 7z"/>
<path d="M1496 3472 c2 -2 -2 -14 -8 -26 -10 -20 -10 -20 8 -4 12 12 15 21 8
27 -6 5 -9 6 -8 3z"/>
<path d="M1459 3443 c-13 -16 -12 -17 4 -4 9 7 17 15 17 17 0 8 -8 3 -21 -13z"/>
<path d="M1565 3450 c-3 -5 -1 -10 4 -10 6 0 11 5 11 10 0 6 -2 10 -4 10 -3 0
-8 -4 -11 -10z"/>
<path d="M3457 3433 c-4 -3 -7 -11 -7 -17 0 -6 5 -5 12 2 6 6 9 14 7 17 -3 3
-9 2 -12 -2z"/>
<path d="M3526 3425 c10 -8 23 -15 28 -15 6 0 1 7 -10 15 -10 8 -23 15 -28 15
-6 0 -1 -7 10 -15z"/>
<path d="M1530 3420 c-8 -5 -11 -10 -7 -10 5 0 -1 -12 -12 -26 -12 -15 -21
-32 -21 -38 0 -6 12 7 27 29 14 22 31 43 37 47 17 12 -7 9 -24 -2z"/>
<path d="M1427 3407 c4 -6 0 -8 -10 -4 -25 9 -21 0 6 -14 12 -6 19 -8 15 -4
-4 5 -3 13 2 20 7 8 5 12 -5 12 -8 0 -11 -5 -8 -10z"/>
<path d="M1500 3412 c0 -7 -10 -11 -21 -9 -12 1 -24 -5 -26 -13 -3 -11 -2 -12
5 -2 5 7 16 10 24 7 16 -6 35 11 24 22 -3 4 -6 1 -6 -5z"/>
<path d="M3480 3409 c0 -5 5 -7 10 -4 6 3 10 8 10 11 0 2 -4 4 -10 4 -5 0 -10
-5 -10 -11z"/>
<path d="M3466 3385 c4 -8 11 -15 16 -15 6 0 5 6 -2 15 -7 8 -14 15 -16 15 -2
0 -1 -7 2 -15z"/>
<path d="M1387 3383 c-4 -6 -1 -14 5 -16 8 -4 7 -6 -3 -6 -9 -1 -19 -7 -22
-15 -4 -10 0 -12 14 -9 10 3 19 10 19 15 0 6 9 8 20 5 11 -3 18 -1 14 4 -3 5
-11 9 -19 9 -7 0 -15 5 -17 12 -3 9 -6 9 -11 1z"/>
<path d="M3504 3349 c1 -18 7 -34 13 -36 20 -7 22 13 4 41 l-19 28 2 -33z m21
-19 c3 -5 1 -10 -4 -10 -6 0 -11 5 -11 10 0 6 2 10 4 10 3 0 8 -4 11 -10z"/>
<path d="M3604 3352 c0 -11 3 -20 6 -20 3 1 13 -2 23 -7 23 -10 35 2 17 18
-10 9 -11 9 -6 0 12 -21 -4 -15 -23 8 -17 21 -17 21 -17 1z"/>
<path d="M1341 3347 c-6 -8 -7 -18 -3 -22 4 -5 -1 -5 -10 -2 -12 4 -15 2 -11
-9 6 -16 23 -19 23 -3 0 5 6 7 13 3 9 -6 9 -5 0 7 -10 12 -10 18 -1 27 7 7 9
12 6 12 -3 0 -11 -6 -17 -13z"/>
<path d="M3085 3323 c-91 -33 -159 -93 -206 -183 -21 -39 -24 -59 -24 -145 0
-95 2 -103 35 -164 111 -205 394 -244 550 -75 66 72 94 143 94 239 0 93 -27
165 -89 234 -84 92 -246 135 -360 94z m148 -84 c14 -23 1 -67 -23 -74 -49 -15
-85 29 -60 75 14 25 67 25 83 -1z m181 -125 c27 -10 37 -40 24 -68 -15 -35
-62 -39 -85 -8 -18 22 -16 39 7 62 21 21 29 23 54 14z m-384 -24 c21 -21 23
-29 14 -54 -10 -26 -39 -37 -68 -26 -21 8 -26 16 -26 44 0 53 43 73 80 36z
m158 -92 c20 -20 15 -66 -9 -78 -30 -17 -68 -4 -75 24 -9 36 12 66 44 66 16 0
33 -5 40 -12z m180 -114 c55 -38 1 -116 -54 -79 -29 19 -31 48 -4 75 24 24 29
24 58 4z m-300 -36 c27 -27 0 -88 -39 -88 -40 0 -65 60 -37 88 7 7 24 12 38
12 14 0 31 -5 38 -12z"/>
<path d="M1442 3290 c0 -19 2 -27 5 -17 2 9 2 25 0 35 -3 9 -5 1 -5 -18z"/>
<path d="M3688 3280 c2 -8 5 -21 5 -27 0 -7 3 -11 6 -8 2 3 20 -9 38 -27 18
-17 33 -29 33 -25 0 4 -16 22 -36 41 -23 22 -33 39 -29 47 5 7 4 10 -3 5 -5
-3 -12 -3 -15 1 -2 5 -2 1 1 -7z"/>
<path d="M925 3265 c-7 -10 -48 -19 -140 -30 -218 -27 -283 -48 -307 -100 -19
-42 -3 -72 55 -100 76 -36 236 -190 246 -236 l8 -36 -31 7 c-37 8 -71 -2 -79
-24 -6 -16 -3 -21 44 -56 40 -30 49 -120 12 -120 -9 0 -80 41 -160 91 -80 49
-152 89 -161 87 -15 -3 -18 -25 -22 -178 -6 -195 -7 -190 69 -218 29 -10 38
-10 58 3 32 22 29 38 -15 66 -30 20 -38 31 -40 62 -2 25 1 39 11 43 8 3 81
-37 167 -91 83 -53 158 -94 165 -91 9 3 15 47 19 163 4 87 9 170 11 186 3 19
-1 33 -15 44 -23 20 -26 33 -7 33 32 0 74 153 46 170 -8 6 -20 3 -31 -7 -21
-19 -48 -10 -48 16 0 27 39 124 53 133 14 8 37 -9 37 -28 0 -18 34 -18 48 -1
19 22 63 168 60 195 -3 31 -37 42 -53 17z m-191 -184 c6 -9 -11 -70 -23 -83
-4 -4 -24 6 -44 23 -29 24 -35 34 -27 44 17 20 85 32 94 16z"/>
<path d="M1260 3258 c-10 -21 -10 -21 3 -6 8 10 18 14 22 10 5 -4 5 -1 1 6
-10 17 -14 15 -26 -10z"/>
<path d="M1300 3269 c0 -5 5 -7 10 -4 6 3 10 8 10 11 0 2 -4 4 -10 4 -5 0 -10
-5 -10 -11z"/>
<path d="M1328 3260 c-18 -21 -13 -26 11 -11 7 5 12 14 10 20 -3 7 -11 3 -21
-9z"/>
<path d="M3591 3254 c0 -11 3 -14 6 -6 3 7 2 16 -1 19 -3 4 -6 -2 -5 -13z"/>
<path d="M3556 3244 c-4 -9 -4 -19 -1 -22 2 -3 7 3 11 12 4 9 4 19 1 22 -2 3
-7 -3 -11 -12z"/>
<path d="M1265 3229 c-4 -6 -5 -12 -2 -15 2 -3 7 2 10 11 7 17 1 20 -8 4z"/>
<path d="M1723 3220 c-95 -20 -189 -92 -238 -182 -40 -74 -47 -196 -15 -280
87 -233 394 -296 567 -116 105 110 129 257 62 394 -62 128 -235 213 -376 184z
m198 -109 c20 -16 22 -23 14 -47 -18 -51 -95 -42 -95 12 0 25 24 54 45 54 7 0
23 -9 36 -19z m-243 -53 c19 -19 15 -66 -7 -78 -31 -16 -49 -12 -67 15 -24 36
-6 75 34 75 15 0 33 -5 40 -12z m96 -154 c19 -18 20 -38 6 -65 -12 -22 -59
-26 -78 -7 -28 28 -2 88 38 88 10 0 26 -7 34 -16z m269 -25 c19 -26 11 -58
-18 -71 -44 -20 -88 28 -65 72 15 27 64 27 83 -1z m-445 -51 c19 -19 15 -66
-7 -78 -31 -16 -49 -12 -67 15 -24 36 -6 75 34 75 15 0 33 -5 40 -12z m297
-118 c24 -27 13 -68 -22 -76 -34 -9 -57 6 -61 42 -6 49 49 72 83 34z"/>
<path d="M1402 3178 c-10 -30 -10 -31 3 -14 13 17 21 46 12 46 -1 0 -8 -15
-15 -32z"/>
<path d="M1223 3175 c-10 -11 -9 -13 7 -12 11 1 20 7 20 14 0 17 -12 16 -27
-2z"/>
<path d="M4453 3150 c-7 -28 -46 -46 -145 -70 -98 -24 -165 -26 -187 -6 -11
10 -22 12 -31 6 -12 -7 -8 -33 23 -167 20 -87 38 -169 39 -183 4 -31 40 -50
94 -50 67 0 88 49 27 64 -42 11 -61 33 -78 89 -8 28 -15 55 -15 59 0 13 65 38
100 38 26 0 30 -3 30 -28 0 -21 -7 -32 -25 -40 -32 -15 -32 -30 2 -43 30 -11
70 -5 126 18 46 20 52 53 9 53 -34 0 -52 16 -52 46 0 23 7 27 67 39 27 5 34 2
48 -19 23 -35 24 -109 2 -133 -40 -45 3 -79 62 -48 42 21 47 37 28 88 -9 23
-28 96 -43 162 -14 66 -31 126 -36 133 -16 19 -39 14 -45 -8z"/>
<path d="M1367 3123 c3 -7 6 -13 8 -13 2 0 5 6 8 13 3 8 -1 14 -8 14 -7 0 -11
-6 -8 -14z"/>
<path d="M3620 3111 c0 -5 5 -13 10 -16 6 -3 10 -2 10 4 0 5 -4 13 -10 16 -5
3 -10 2 -10 -4z"/>
<path d="M3783 3104 c-3 -8 -2 -19 3 -24 5 -5 9 1 9 16 0 28 -3 30 -12 8z"/>
<path d="M1191 3103 c-1 -6 -4 -20 -7 -30 -5 -17 -5 -17 6 0 6 10 9 23 6 30
-3 9 -5 9 -5 0z"/>
<path d="M1250 3090 c0 -5 5 -10 10 -10 6 0 10 5 10 10 0 6 -4 10 -10 10 -5 0
-10 -4 -10 -10z"/>
<path d="M1323 3052 c-1 -22 0 -24 9 -8 6 10 6 22 2 26 -5 5 -10 -3 -11 -18z"/>
<path d="M1290 3036 c0 -8 4 -17 9 -20 5 -4 7 3 4 14 -6 23 -13 26 -13 6z"/>
<path d="M1271 2971 c-12 -16 -21 -33 -21 -37 0 -4 11 7 25 26 14 19 25 35 25
37 0 9 -11 0 -29 -26z"/>
<path d="M3695 2990 c3 -5 8 -10 11 -10 2 0 4 5 4 10 0 6 -5 10 -11 10 -5 0
-7 -4 -4 -10z"/>
<path d="M3730 2991 c0 -6 4 -13 10 -16 6 -3 7 1 4 9 -7 18 -14 21 -14 7z"/>
<path d="M3792 2980 c0 -14 2 -19 5 -12 2 6 2 18 0 25 -3 6 -5 1 -5 -13z"/>
<path d="M3720 2954 c0 -5 7 -18 15 -28 8 -11 15 -16 15 -10 0 5 -7 18 -15 28
-8 11 -15 16 -15 10z"/>
<path d="M2409 2917 c-70 -29 -119 -67 -153 -116 -97 -140 -87 -313 25 -436
74 -80 141 -110 249 -110 71 0 94 4 141 26 79 37 133 90 171 167 29 59 33 76
33 147 -1 103 -35 183 -107 251 -68 63 -125 87 -223 91 -67 3 -89 0 -136 -20z
m209 -73 c30 -21 29 -59 -3 -80 -23 -15 -27 -15 -50 0 -29 19 -32 51 -8 78 20
22 32 23 61 2z m-224 -100 c19 -18 21 -55 4 -72 -7 -7 -24 -12 -38 -12 -14 0
-31 5 -38 12 -28 28 -2 88 38 88 10 0 26 -7 34 -16z m390 -100 c21 -20 20 -43
-1 -66 -32 -36 -83 -17 -83 32 0 14 5 31 12 38 17 17 54 15 72 -4z m-264 -34
c23 -23 25 -40 8 -62 -30 -38 -79 -28 -93 19 -4 15 0 28 14 42 26 26 46 26 71
1z m-160 -110 c11 -11 20 -27 20 -35 0 -18 -35 -55 -52 -55 -45 1 -68 71 -32
97 25 18 41 16 64 -7z m312 -57 c22 -20 23 -41 1 -65 -32 -36 -83 -17 -83 32
0 48 45 67 82 33z"/>
<path d="M1211 2874 c0 -11 3 -14 6 -6 3 7 2 16 -1 19 -3 4 -6 -2 -5 -13z"/>
<path d="M1190 2847 c0 -8 7 -14 15 -14 11 0 12 4 4 14 -6 7 -13 13 -15 13 -2
0 -4 -6 -4 -13z"/>
<path d="M1133 2822 c0 -14 5 -32 13 -39 8 -8 14 -10 14 -4 0 5 -5 13 -10 16
-6 4 -8 15 -5 25 3 10 2 21 -2 23 -4 3 -9 -6 -10 -21z"/>
<path d="M1163 2834 c-3 -8 -1 -20 5 -26 7 -7 10 -2 9 16 -2 30 -5 32 -14 10z"/>
<path d="M3581 2788 c-19 -46 -20 -53 -6 -68 35 -38 6 -100 -47 -100 -21 0
-29 -9 -48 -51 -25 -60 -20 -69 48 -69 133 0 218 134 163 256 -17 37 -62 84
-81 84 -4 0 -17 -23 -29 -52z"/>
<path d="M3851 2770 c14 -31 19 -36 19 -24 0 6 -7 19 -16 30 -14 18 -14 18 -3
-6z"/>
<path d="M1115 2759 c-4 -6 -5 -12 -2 -15 2 -3 7 2 10 11 7 17 1 20 -8 4z"/>
<path d="M3871 2714 c0 -11 3 -14 6 -6 3 7 2 16 -1 19 -3 4 -6 -2 -5 -13z"/>
<path d="M1095 2709 c-4 -6 -5 -12 -2 -15 2 -3 7 2 10 11 7 17 1 20 -8 4z"/>
<path d="M1320 2640 c0 -46 3 -60 15 -60 22 0 48 -45 40 -70 -4 -11 -17 -28
-31 -36 -21 -14 -24 -24 -24 -74 l0 -58 33 7 c70 16 119 64 138 134 25 95 -58
217 -150 217 -19 0 -21 -6 -21 -60z"/>
<path d="M1091 2672 c-1 -7 -6 -10 -12 -6 -7 4 -10 1 -7 -6 2 -7 15 -15 29
-17 13 -2 19 0 13 4 -6 5 -14 15 -17 23 -4 10 -6 11 -6 2z"/>
<path d="M4181 2641 c-16 -30 -24 -152 -12 -183 12 -32 27 -35 52 -12 17 15
114 23 127 10 3 -3 0 -17 -6 -30 -8 -19 -24 -27 -66 -37 -82 -18 -113 -40
-126 -90 -9 -31 -9 -54 0 -87 6 -25 7 -48 2 -51 -5 -3 -36 -85 -70 -181 -60
-172 -61 -175 -44 -199 36 -49 122 -75 122 -37 0 7 -12 28 -26 47 -21 28 -25
41 -20 75 3 23 11 54 18 69 11 24 16 27 50 22 22 -3 50 -13 64 -22 23 -15 24
-18 11 -38 -9 -14 -25 -22 -43 -22 -22 0 -29 -5 -29 -20 0 -27 72 -66 127 -68
37 -2 43 1 46 19 2 14 -5 24 -23 32 -28 13 -31 29 -12 56 12 17 18 17 53 6 55
-18 66 -29 59 -59 -14 -54 -37 -88 -71 -104 -42 -21 -42 -45 0 -66 20 -9 38
-11 59 -4 27 7 33 15 39 53 4 24 26 99 49 167 22 67 39 130 37 139 -4 24 -23
28 -41 9 -22 -21 -53 -19 -149 11 -110 35 -157 60 -168 89 -13 35 22 70 80 80
33 5 54 17 78 42 l32 34 31 -30 c24 -24 39 -31 70 -31 93 0 114 42 122 240 3
80 3 151 0 158 -7 18 -36 14 -56 -8 -19 -22 -60 -25 -205 -11 -64 6 -88 13
-105 30 -29 26 -43 27 -56 2z m344 -195 c37 -27 -11 -70 -68 -59 -30 6 -52 36
-43 59 7 18 86 19 111 0z"/>
<path d="M3802 2620 c0 -14 2 -19 5 -12 2 6 2 18 0 25 -3 6 -5 1 -5 -13z"/>
<path d="M3781 2594 c0 -11 3 -14 6 -6 3 7 2 16 -1 19 -3 4 -6 -2 -5 -13z"/>
<path d="M1107 2593 c-9 -9 -8 -45 1 -60 5 -7 8 4 7 27 0 22 0 40 -1 40 0 0
-4 -3 -7 -7z"/>
<path d="M1051 2574 c0 -11 3 -14 6 -6 3 7 2 16 -1 19 -3 4 -6 -2 -5 -13z"/>
<path d="M3925 2580 c3 -5 8 -10 11 -10 2 0 4 5 4 10 0 6 -5 10 -11 10 -5 0
-7 -4 -4 -10z"/>
<path d="M3920 2545 c0 -5 5 -17 10 -25 5 -8 10 -10 10 -5 0 6 -5 17 -10 25
-5 8 -10 11 -10 5z"/>
<path d="M3135 2490 c-59 -18 -140 -76 -177 -125 -49 -65 -71 -132 -70 -218 0
-59 5 -80 36 -143 63 -127 162 -188 306 -189 73 0 94 4 145 28 258 121 267
482 15 616 -53 28 -75 34 -144 37 -44 2 -94 -1 -111 -6z m185 -90 c23 -23 25
-40 8 -62 -20 -24 -44 -28 -67 -12 -25 18 -27 56 -5 78 21 21 40 20 64 -4z
m-225 -100 c15 -16 17 -26 9 -48 -17 -50 -94 -39 -94 14 0 49 52 70 85 34z
m391 -105 c15 -23 15 -27 0 -50 -19 -29 -51 -32 -78 -8 -22 20 -23 41 -1 65
23 26 59 23 79 -7z m-263 -36 c14 -23 1 -67 -23 -74 -43 -14 -82 35 -60 75 14
25 67 25 83 -1z m-159 -99 c15 -15 9 -61 -10 -75 -26 -20 -41 -18 -64 5 -25
25 -25 45 1 71 20 20 51 19 73 -1z m312 -65 c15 -23 15 -27 0 -50 -19 -29 -51
-32 -78 -8 -22 20 -23 41 -1 65 23 26 59 23 79 -7z"/>
<path d="M3942 2470 c0 -14 2 -19 5 -12 2 6 2 18 0 25 -3 6 -5 1 -5 -13z"/>
<path d="M1051 2424 c0 -11 3 -14 6 -6 3 7 2 16 -1 19 -3 4 -6 -2 -5 -13z"/>
<path d="M3801 2424 c0 -11 3 -14 6 -6 3 7 2 16 -1 19 -3 4 -6 -2 -5 -13z"/>
<path d="M1623 2400 c-29 -12 -75 -42 -103 -67 -185 -166 -139 -467 88 -570
72 -34 180 -37 262 -9 77 27 170 120 200 201 29 80 25 197 -10 270 -31 64
-101 134 -165 164 -71 35 -199 39 -272 11z m217 -80 c26 -26 25 -36 -5 -65
-21 -22 -27 -24 -50 -13 -14 6 -25 15 -25 19 0 4 -3 14 -6 22 -6 18 29 57 51
57 8 0 24 -9 35 -20z m-228 -97 c22 -20 23 -41 1 -65 -23 -26 -59 -23 -79 7
-15 23 -15 27 0 50 19 29 51 32 78 8z m386 -95 c22 -22 14 -67 -14 -80 -45
-21 -87 21 -66 66 13 28 58 36 80 14z m-266 -35 c26 -23 23 -59 -7 -79 -23
-15 -27 -15 -50 0 -29 19 -32 51 -8 78 20 22 41 23 65 1z m-158 -109 c20 -19
21 -58 2 -73 -25 -21 -69 -9 -80 21 -17 50 42 89 78 52z m314 -56 c7 -7 12
-25 12 -40 0 -40 -39 -58 -75 -34 -27 18 -31 36 -15 67 12 22 59 26 78 7z"/>
<path d="M3931 2404 c0 -11 3 -14 6 -6 3 7 2 16 -1 19 -3 4 -6 -2 -5 -13z"/>
<path d="M1067 2396 c-3 -8 0 -22 7 -32 11 -15 12 -13 8 14 -5 36 -7 38 -15
18z"/>
<path d="M1201 2394 c0 -11 3 -14 6 -6 3 7 2 16 -1 19 -3 4 -6 -2 -5 -13z"/>
<path d="M1101 2374 c0 -11 3 -14 6 -6 3 7 2 16 -1 19 -3 4 -6 -2 -5 -13z"/>
<path d="M3851 2344 c0 -11 3 -14 6 -6 3 7 2 16 -1 19 -3 4 -6 -2 -5 -13z"/>
<path d="M3900 2329 c0 -5 5 -7 10 -4 6 3 10 8 10 11 0 2 -4 4 -10 4 -5 0 -10
-5 -10 -11z"/>
<path d="M3802 2305 c0 -16 2 -22 5 -12 2 9 2 23 0 30 -3 6 -5 -1 -5 -18z"/>
<path d="M686 2304 c-26 -26 -18 -44 28 -64 48 -20 63 -39 68 -85 2 -21 -2
-30 -14 -33 -10 -2 -90 19 -178 47 -155 49 -190 54 -190 26 0 -7 16 -68 35
-135 19 -67 35 -137 35 -156 0 -27 6 -36 30 -49 37 -19 104 -20 120 0 18 22 8
47 -25 58 -16 5 -37 16 -47 24 -20 18 -32 63 -20 75 6 6 65 -8 158 -37 82 -26
161 -51 175 -55 52 -15 53 -4 15 166 -19 88 -37 170 -38 184 -2 14 -13 30 -28
37 -35 18 -105 16 -124 -3z"/>
<path d="M3891 2294 c0 -11 3 -14 6 -6 3 7 2 16 -1 19 -3 4 -6 -2 -5 -13z"/>
<path d="M2305 2181 c-56 -34 -95 -100 -95 -158 0 -51 11 -57 69 -38 40 13 51
21 51 38 0 30 11 44 41 55 25 10 56 1 70 -21 9 -13 109 21 109 38 0 20 -48 73
-81 90 -40 21 -127 19 -164 -4z"/>
<path d="M1211 2160 c0 -8 4 -22 9 -30 12 -18 12 -2 0 25 -6 13 -9 15 -9 5z"/>
<path d="M3847 2163 c-4 -3 -7 -13 -7 -22 1 -13 3 -13 11 2 11 19 8 33 -4 20z"/>
<path d="M1171 2144 c0 -11 3 -14 6 -6 3 7 2 16 -1 19 -3 4 -6 -2 -5 -13z"/>
<path d="M3822 2140 c0 -14 2 -19 5 -12 2 6 2 18 0 25 -3 6 -5 1 -5 -13z"/>
<path d="M1187 2130 c-3 -11 -1 -20 4 -20 5 0 9 9 9 20 0 11 -2 20 -4 20 -2 0
-6 -9 -9 -20z"/>
<path d="M3835 2109 c-4 -6 -5 -12 -2 -15 2 -3 7 2 10 11 7 17 1 20 -8 4z"/>
<path d="M1151 2084 c0 -11 3 -14 6 -6 3 7 2 16 -1 19 -3 4 -6 -2 -5 -13z"/>
<path d="M1195 2070 c-3 -5 -1 -10 4 -10 6 0 11 5 11 10 0 6 -2 10 -4 10 -3 0
-8 -4 -11 -10z"/>
<path d="M1250 2061 c0 -6 4 -13 10 -16 6 -3 7 1 4 9 -7 18 -14 21 -14 7z"/>
<path d="M3750 2059 c0 -5 -4 -8 -9 -4 -5 3 -12 1 -15 -4 -4 -5 2 -8 11 -6 10
2 21 4 26 4 11 1 8 21 -3 21 -5 0 -10 -5 -10 -11z"/>
<path d="M1280 2006 c0 -2 8 -10 18 -17 15 -13 16 -12 3 4 -13 16 -21 21 -21
13z"/>
<path d="M2489 1987 c-56 -21 -104 -53 -144 -99 -94 -103 -116 -247 -58 -369
51 -106 121 -166 228 -194 77 -20 155 -12 233 25 75 35 127 88 165 168 40 86
42 192 4 275 -32 71 -92 136 -159 172 -45 25 -66 30 -143 32 -58 2 -103 -2
-126 -10z m206 -87 c24 -27 13 -68 -22 -76 -34 -9 -57 6 -61 40 -6 53 47 76
83 36z m-230 -100 c24 -27 13 -68 -22 -76 -48 -13 -85 35 -57 75 19 26 55 27
79 1z m383 -92 c21 -21 15 -67 -12 -79 -45 -21 -90 26 -66 71 12 23 58 28 78
8z m-267 -28 c26 -15 25 -64 -2 -84 -47 -32 -102 32 -64 74 20 22 37 25 66 10z
m-160 -110 c26 -15 25 -64 -2 -83 -46 -33 -97 19 -65 68 18 27 36 31 67 15z
m328 -78 c12 -23 -3 -59 -28 -67 -24 -7 -56 8 -65 31 -23 60 63 94 93 36z"/>
<path d="M3761 1984 c0 -11 3 -14 6 -6 3 7 2 16 -1 19 -3 4 -6 -2 -5 -13z"/>
<path d="M3676 1973 c-6 -14 -5 -15 5 -6 7 7 10 15 7 18 -3 3 -9 -2 -12 -12z"/>
<path d="M1310 1964 c0 -13 18 -39 24 -34 2 3 -2 14 -10 24 -8 11 -14 16 -14
10z"/>
<path d="M3641 1924 c-12 -15 -21 -31 -21 -37 0 -6 11 4 25 23 14 19 25 35 25
37 0 9 -11 0 -29 -23z"/>
<path d="M3666 1915 c-9 -26 -7 -32 5 -12 6 10 9 21 6 23 -2 3 -7 -2 -11 -11z"/>
<path d="M3765 1886 c2 -16 7 -31 11 -35 4 -3 4 2 1 11 -3 10 -2 20 3 23 6 4
10 12 10 18 0 8 -3 7 -9 -2 -7 -11 -9 -11 -14 0 -3 8 -4 1 -2 -15z"/>
<path d="M877 1870 c-6 -25 -19 -36 -94 -74 -118 -59 -163 -72 -193 -56 -18
10 -25 9 -37 -3 -14 -13 -13 -21 2 -66 35 -107 112 -186 123 -126 7 34 24 47
129 97 99 46 119 52 173 46 20 -2 26 2 28 21 8 53 -70 191 -107 191 -13 0 -20
-9 -24 -30z"/>
<path d="M1350 1890 c-12 -7 -10 -9 7 -7 12 0 19 5 17 9 -6 10 -6 10 -24 -2z"/>
<path d="M1260 1833 c0 -24 3 -33 9 -25 7 12 4 62 -5 62 -2 0 -4 -17 -4 -37z"/>
<path d="M1236 1837 c3 -10 9 -15 12 -12 3 3 0 11 -7 18 -10 9 -11 8 -5 -6z"/>
<path d="M3577 1815 c-4 -8 -3 -16 1 -19 4 -3 9 4 9 15 2 23 -3 25 -10 4z"/>
<path d="M1411 1784 c0 -11 3 -14 6 -6 3 7 2 16 -1 19 -3 4 -6 -2 -5 -13z"/>
<path d="M3015 1772 c-12 -12 -3 -79 16 -119 53 -110 196 -133 283 -46 34 35
53 69 43 79 -3 3 -27 11 -54 18 -47 13 -50 12 -70 -10 -12 -13 -31 -24 -42
-24 -26 0 -61 34 -61 58 0 14 -14 23 -55 34 -30 8 -57 13 -60 10z"/>
<path d="M3740 1760 c-6 -11 -8 -20 -6 -20 3 0 10 9 16 20 6 11 8 20 6 20 -3
0 -10 -9 -16 -20z"/>
<path d="M1240 1761 c0 -6 4 -13 10 -16 6 -3 7 1 4 9 -7 18 -14 21 -14 7z"/>
<path d="M3556 1737 c3 -10 9 -15 12 -12 3 3 0 11 -7 18 -10 9 -11 8 -5 -6z"/>
<path d="M1286 1712 c-3 -5 1 -9 9 -9 8 0 12 4 9 9 -3 4 -7 8 -9 8 -2 0 -6 -4
-9 -8z"/>
<path d="M1324 1701 c2 -27 36 -81 49 -78 6 1 11 -3 10 -9 -1 -7 5 -11 15 -10
9 0 16 -5 15 -11 -2 -7 2 -12 9 -10 7 1 12 -3 13 -10 0 -18 37 -42 54 -35 10
4 13 1 8 -11 -4 -11 1 -20 14 -28 20 -10 20 -9 5 19 -8 16 -12 32 -9 36 12 12
-13 6 -26 -6 -11 -11 -13 -10 -8 5 4 10 3 16 -2 13 -4 -3 -27 12 -50 34 -23
22 -46 38 -51 35 -11 -7 -21 21 -14 43 5 13 4 14 -4 3 -7 -9 -11 -10 -17 -2
-4 7 -2 18 4 25 8 9 7 13 -3 13 -7 0 -13 -7 -12 -16z"/>
<path d="M2005 1686 c-89 -117 -23 -272 121 -284 50 -4 114 11 114 27 0 19
-64 92 -76 87 -21 -8 -61 10 -74 34 -9 17 -9 29 0 51 11 25 9 33 -16 74 -16
25 -32 45 -36 45 -4 0 -19 -15 -33 -34z"/>
<path d="M3506 1673 c-6 -14 -5 -15 5 -6 7 7 10 15 7 18 -3 3 -9 -2 -12 -12z"/>
<path d="M3620 1663 c0 -21 21 -26 38 -9 9 9 11 16 5 16 -6 0 -14 -6 -16 -12
-4 -10 -8 -9 -16 2 -7 9 -11 10 -11 3z"/>
<path d="M1470 1656 c0 -2 8 -10 18 -17 15 -13 16 -12 3 4 -13 16 -21 21 -21
13z"/>
<path d="M3593 1653 c-20 -8 -15 -19 10 -20 12 0 16 1 9 4 -6 3 -10 9 -6 14 6
10 5 10 -13 2z"/>
<path d="M3477 1618 c-10 -17 -16 -33 -13 -35 2 -3 12 9 21 27 21 41 15 48 -8
8z"/>
<path d="M3510 1641 c0 -6 5 -13 10 -16 16 -10 12 -25 -5 -19 -10 4 -15 0 -15
-12 0 -16 2 -17 10 -4 9 13 9 -10 1 -60 -1 -3 -6 2 -11 10 -5 8 -18 16 -29 16
-11 1 -18 -2 -15 -7 2 -4 12 -5 21 -2 14 6 14 4 -1 -19 -14 -21 -14 -25 -2
-25 8 0 14 5 13 10 -1 5 5 11 14 12 18 3 65 45 51 45 -4 0 -14 -6 -21 -12 -11
-11 -12 -8 -6 12 4 14 11 30 15 35 4 6 -1 18 -12 28 -10 9 -18 13 -18 8z"/>
<path d="M1427 1619 c7 -7 15 -10 18 -7 3 3 -2 9 -12 12 -14 6 -15 5 -6 -5z"/>
<path d="M1465 1611 c-3 -5 -1 -12 5 -16 5 -3 10 1 10 9 0 18 -6 21 -15 7z"/>
<path d="M3549 1593 c-13 -17 -13 -17 6 -3 11 8 22 16 24 17 2 2 0 3 -6 3 -6
0 -17 -8 -24 -17z"/>
<path d="M3889 1573 c-50 -52 -99 -128 -99 -151 0 -27 23 -34 49 -15 21 14 25
13 63 -13 48 -34 56 -50 34 -72 -13 -13 -21 -14 -46 -5 -23 9 -32 8 -40 -2
-14 -17 -3 -39 42 -82 68 -66 138 -61 96 7 -11 17 -9 23 10 42 l22 22 35 -34
c19 -19 35 -38 35 -42 0 -5 -17 -27 -38 -49 -28 -31 -47 -42 -79 -46 -23 -3
-44 -12 -47 -20 -9 -24 39 -63 77 -63 30 0 40 7 77 58 24 31 74 94 112 139 80
95 85 118 22 118 -33 0 -52 9 -99 45 -119 91 -149 124 -150 161 0 49 -30 50
-76 2z"/>
<path d="M1490 1590 c0 -5 6 -13 14 -17 7 -4 16 -15 19 -23 3 -10 6 -7 6 9 1
21 3 22 19 10 15 -13 16 -12 4 3 -8 9 -20 14 -28 11 -8 -3 -14 0 -14 6 0 6 -4
11 -10 11 -5 0 -10 -4 -10 -10z"/>
<path d="M1575 1530 c3 -5 8 -10 11 -10 2 0 4 5 4 10 0 6 -5 10 -11 10 -5 0
-7 -4 -4 -10z"/>
<path d="M3443 1525 c0 -8 4 -12 9 -9 5 3 6 10 3 15 -9 13 -12 11 -12 -6z"/>
<path d="M801 1513 c-64 -32 -89 -112 -57 -186 7 -18 35 -57 62 -87 26 -30 63
-77 82 -103 41 -57 67 -60 67 -7 0 33 7 40 110 118 95 71 115 82 145 80 31 -3
35 0 38 22 5 44 -100 178 -132 167 -6 -2 -12 -18 -14 -35 -3 -28 -49 -82 -70
-82 -4 0 -17 16 -29 34 -51 80 -136 113 -202 79z m149 -123 c11 -11 20 -24 20
-29 0 -11 -95 -81 -110 -81 -16 0 -32 41 -26 66 6 24 58 64 84 64 6 0 21 -9
32 -20z"/>
<path d="M1600 1522 c0 -9 60 -46 64 -40 2 1 -12 13 -30 25 -19 12 -34 19 -34
15z"/>
<path d="M3395 1504 c-11 -8 -19 -20 -17 -25 1 -6 -7 -8 -20 -4 -22 7 -22 7
-4 -8 15 -11 23 -12 32 -3 7 7 8 12 2 15 -5 2 3 12 19 22 15 10 24 19 18 19
-5 -1 -19 -8 -30 -16z"/>
<path d="M1547 1493 c-4 -3 -7 -11 -7 -17 0 -6 5 -5 12 2 6 6 9 14 7 17 -3 3
-9 2 -12 -2z"/>
<path d="M3443 1469 c-2 -23 3 -25 10 -4 4 8 3 16 -1 19 -4 3 -9 -4 -9 -15z"/>
<path d="M3290 1465 c-8 -9 -8 -15 -2 -15 12 0 26 19 19 26 -2 2 -10 -2 -17
-11z"/>
<path d="M1565 1447 c2 -23 27 -31 31 -9 1 7 0 8 -3 2 -7 -15 -23 -12 -17 4 3
8 1 16 -4 20 -5 3 -8 -5 -7 -17z"/>
<path d="M3399 1453 c-13 -16 -12 -17 4 -4 9 7 17 15 17 17 0 8 -8 3 -21 -13z"/>
<path d="M3330 1450 c0 -5 5 -10 10 -10 6 0 10 5 10 10 0 6 -4 10 -10 10 -5 0
-10 -4 -10 -10z"/>
<path d="M3257 1439 c7 -7 15 -10 18 -7 3 3 -2 9 -12 12 -14 6 -15 5 -6 -5z"/>
<path d="M3410 1431 c0 -8 -7 -11 -17 -6 -15 5 -16 4 -5 -6 9 -10 15 -10 24
-1 6 6 9 15 5 19 -4 3 -7 1 -7 -6z"/>
<path d="M1784 1422 c3 -6 0 -12 -6 -15 -7 -2 -1 -4 14 -3 34 1 34 2 7 17 -13
6 -19 7 -15 1z"/>
<path d="M3188 1413 c6 -2 9 -10 6 -15 -4 -7 -2 -8 5 -4 13 9 5 26 -12 25 -9
0 -8 -2 1 -6z"/>
<path d="M1623 1380 c-1 -10 6 -24 15 -31 14 -11 15 -11 5 1 -18 20 -16 26 7
26 14 0 19 -5 15 -16 -5 -11 -3 -12 6 -3 13 13 3 37 -12 27 -5 -3 -15 -1 -22
5 -10 7 -13 5 -14 -9z"/>
<path d="M3290 1383 c0 -6 8 -17 18 -24 16 -13 16 -13 2 6 -8 11 -16 22 -17
24 -2 2 -3 0 -3 -6z"/>
<path d="M3170 1370 c0 -5 5 -10 11 -10 5 0 7 5 4 10 -3 6 -8 10 -11 10 -2 0
-4 -4 -4 -10z"/>
<path d="M3064 1345 c-10 -8 -14 -15 -8 -15 6 0 17 7 24 15 16 19 9 19 -16 0z"/>
<path d="M3337 1353 c-4 -3 -7 -11 -7 -17 0 -6 5 -5 12 2 6 6 9 14 7 17 -3 3
-9 2 -12 -2z"/>
<path d="M1888 1333 c7 -3 16 -2 19 1 4 3 -2 6 -13 5 -11 0 -14 -3 -6 -6z"/>
<path d="M1690 1306 c4 -4 16 -4 26 2 16 9 14 10 -8 9 -15 -1 -23 -6 -18 -11z"/>
<path d="M3223 1304 c0 -16 6 -17 25 -5 11 6 9 9 -5 13 -12 3 -20 0 -20 -8z"/>
<path d="M1990 1295 c0 -7 61 -47 66 -42 3 2 -11 14 -31 25 -19 12 -35 20 -35
17z"/>
<path d="M2985 1290 c-3 -5 1 -10 9 -10 9 0 16 5 16 10 0 6 -4 10 -9 10 -6 0
-13 -4 -16 -10z"/>
<path d="M3203 1257 c1 -20 5 -33 10 -30 4 3 6 8 3 11 -3 3 2 14 11 25 10 11
12 17 4 12 -8 -4 -16 -2 -21 5 -4 7 -7 -3 -7 -23z"/>
<path d="M2953 1273 c-17 -6 -17 -20 0 -26 8 -3 13 3 13 14 0 11 0 19 -1 18 0
0 -6 -3 -12 -6z"/>
<path d="M1925 1260 c-3 -5 1 -10 10 -10 9 0 13 5 10 10 -3 6 -8 10 -10 10 -2
0 -7 -4 -10 -10z"/>
<path d="M2072 1241 c-11 -7 -11 -9 0 -14 9 -3 15 1 15 9 0 8 -1 14 -1 14 -1
0 -7 -4 -14 -9z"/>
<path d="M1822 1231 c-11 -6 -10 -10 4 -15 9 -3 19 -4 22 -1 3 3 -1 5 -9 6 -8
0 -6 4 6 9 13 6 15 9 5 9 -8 0 -21 -3 -28 -8z"/>
<path d="M1960 1230 c0 -4 15 -10 33 -12 17 -3 41 -9 52 -13 14 -6 17 -5 10 3
-12 14 -95 33 -95 22z"/>
<path d="M1878 1223 c7 -3 16 -2 19 1 4 3 -2 6 -13 5 -11 0 -14 -3 -6 -6z"/>
<path d="M3018 1223 c6 -2 18 -2 25 0 6 3 1 5 -13 5 -14 0 -19 -2 -12 -5z"/>
<path d="M3085 1220 c-3 -5 -1 -10 4 -10 6 0 11 5 11 10 0 6 -2 10 -4 10 -3 0
-8 -4 -11 -10z"/>
<path d="M3120 1226 c0 -2 7 -7 16 -10 8 -3 12 -2 9 4 -6 10 -25 14 -25 6z"/>
<path d="M2443 1213 c9 -2 23 -2 30 0 6 3 -1 5 -18 5 -16 0 -22 -2 -12 -5z"/>
<path d="M2828 1213 c6 -2 18 -2 25 0 6 3 1 5 -13 5 -14 0 -19 -2 -12 -5z"/>
<path d="M1893 1203 c9 -2 25 -2 35 0 9 3 1 5 -18 5 -19 0 -27 -2 -17 -5z"/>
<path d="M1970 1200 c0 -5 4 -10 9 -10 6 0 13 5 16 10 3 6 -1 10 -9 10 -9 0
-16 -4 -16 -10z"/>
<path d="M2290 1200 c-12 -8 -10 -10 8 -10 13 0 20 4 17 10 -7 12 -6 12 -25 0z"/>
<path d="M2794 1199 c-3 -6 -2 -15 3 -20 5 -5 9 -1 9 11 0 23 -2 24 -12 9z"/>
<path d="M3522 1185 c-116 -59 -172 -194 -123 -300 38 -83 117 -134 209 -135
67 0 109 18 166 70 112 103 100 274 -25 357 -62 41 -155 44 -227 8z m99 -125
c102 -53 149 -140 94 -176 -24 -15 -28 -15 -69 0 -52 20 -121 77 -142 118 -14
27 -14 32 1 54 20 30 61 32 116 4z"/>
<path d="M1362 1164 c-43 -37 -48 -48 -32 -74 8 -12 14 -12 45 3 46 22 59 21
112 -5 64 -32 70 -49 36 -103 -41 -65 -77 -59 -78 14 0 19 -5 36 -11 38 -18 6
-84 -69 -96 -109 -16 -55 1 -70 43 -39 l31 23 21 -20 20 -21 -26 -40 c-32 -49
-50 -51 -104 -12 -32 23 -41 37 -47 70 -4 30 -11 41 -24 41 -26 0 -40 -12 -52
-45 -16 -43 -5 -69 37 -89 21 -9 85 -49 143 -87 101 -66 141 -81 155 -59 4 6
1 18 -6 26 -19 22 2 72 74 177 61 90 80 107 116 107 49 0 19 36 -86 105 -59
39 -127 85 -150 103 -24 17 -51 32 -61 32 -10 0 -37 -16 -60 -36z"/>
<path d="M2168 1193 c7 -3 16 -2 19 1 4 3 -2 6 -13 5 -11 0 -14 -3 -6 -6z"/>
<path d="M2738 1193 c6 -2 18 -2 25 0 6 3 1 5 -13 5 -14 0 -19 -2 -12 -5z"/>
<path d="M3055 1190 c27 -12 43 -12 25 0 -8 5 -22 9 -30 9 -10 0 -8 -3 5 -9z"/>
<path d="M2168 1173 c7 -3 16 -2 19 1 4 3 -2 6 -13 5 -11 0 -14 -3 -6 -6z"/>
<path d="M2368 1173 c6 -2 18 -2 25 0 6 3 1 5 -13 5 -14 0 -19 -2 -12 -5z"/>
<path d="M2328 1163 c7 -3 16 -2 19 1 4 3 -2 6 -13 5 -11 0 -14 -3 -6 -6z"/>
<path d="M2167 1149 c7 -7 15 -10 18 -7 3 3 -2 9 -12 12 -14 6 -15 5 -6 -5z"/>
<path d="M2203 1145 c0 -17 41 -18 92 -4 23 6 18 7 -18 3 -27 -3 -54 -1 -61 5
-9 8 -13 7 -13 -4z"/>
<path d="M2715 1140 c-3 -6 1 -13 10 -16 14 -6 14 -9 3 -16 -10 -8 -10 -9 2
-5 8 2 14 10 12 17 -2 9 6 10 25 6 23 -5 25 -4 10 4 -9 6 -27 8 -38 5 -15 -5
-19 -4 -15 4 4 6 5 11 2 11 -3 0 -8 -5 -11 -10z"/>
<path d="M2298 1123 c7 -3 16 -2 19 1 4 3 -2 6 -13 5 -11 0 -14 -3 -6 -6z"/>
<path d="M2668 1123 c7 -3 16 -2 19 1 4 3 -2 6 -13 5 -11 0 -14 -3 -6 -6z"/>
<path d="M2298 1103 c7 -3 16 -2 19 1 4 3 -2 6 -13 5 -11 0 -14 -3 -6 -6z"/>
<path d="M2393 1073 c4 -3 4 -10 0 -16 -3 -7 -3 -9 1 -5 5 4 19 3 32 -2 13 -5
24 -6 24 -1 0 5 -8 11 -17 14 -10 2 -25 7 -33 9 -8 3 -12 3 -7 1z"/>
<path d="M2570 1070 c-12 -8 -12 -10 3 -16 22 -8 47 2 46 18 0 10 -2 10 -6 1
-2 -7 -12 -13 -21 -13 -15 0 -15 2 -2 10 8 5 11 10 5 10 -5 0 -17 -4 -25 -10z"/>
<path d="M2475 1059 c-11 -16 -1 -19 13 -3 7 8 8 14 3 14 -5 0 -13 -5 -16 -11z"/>
<path d="M3187 976 c-102 -34 -131 -73 -73 -96 28 -10 64 -96 48 -112 -20 -20
-57 2 -94 55 -46 67 -83 85 -137 68 -79 -23 -119 -82 -66 -95 14 -4 36 -24 50
-46 26 -42 52 -60 84 -60 28 0 35 -16 17 -42 -27 -39 -20 -86 18 -124 46 -46
89 -45 210 2 50 19 111 43 136 52 57 22 64 50 18 72 -30 14 -36 25 -76 143
-41 120 -43 130 -28 152 14 22 14 25 0 39 -20 20 -26 20 -107 -8z m31 -320
c15 -54 11 -76 -16 -76 -24 0 -48 27 -57 62 -5 20 -1 32 15 48 29 29 42 22 58
-34z"/>
<path d="M1770 962 c-25 -8 -29 -24 -13 -49 14 -21 13 -30 -12 -111 -39 -125
-62 -176 -87 -187 -49 -22 -21 -61 65 -88 98 -31 150 -15 118 35 -13 21 -5 82
13 96 7 6 29 4 59 -5 43 -12 47 -16 47 -44 0 -29 -37 -79 -60 -79 -17 0 -11
-36 8 -53 25 -23 141 -52 175 -43 27 6 38 38 17 51 -16 10 -12 44 19 140 38
120 49 142 76 149 83 21 -34 106 -145 106 -47 0 -56 -12 -40 -51 10 -23 10
-39 1 -69 -6 -22 -15 -42 -20 -44 -14 -9 -111 24 -111 37 1 28 41 99 60 104
13 4 20 14 20 30 0 19 -9 28 -44 44 -51 22 -124 38 -146 31z"/>
<path d="M2336 814 c-22 -21 -20 -27 14 -52 28 -21 30 -27 30 -85 0 -34 -3
-92 -7 -129 -5 -56 -9 -68 -23 -68 -10 0 -27 16 -39 35 -22 38 -59 47 -81 20
-18 -22 -6 -92 20 -120 21 -22 29 -23 158 -24 75 -1 150 -4 167 -7 25 -4 36 0
58 21 46 46 50 127 7 133 -18 3 -33 -5 -58 -35 -31 -36 -33 -37 -47 -20 -10
14 -12 41 -8 110 6 110 19 167 37 167 19 0 36 23 28 36 -16 25 -56 34 -146 34
-73 0 -98 -4 -110 -16z"/>
</g>
</svg>
